<?xml version="1.0" encoding="UTF-8" standalone="no"?>
<!-- Created with Inkscape (http://www.inkscape.org/) -->

<svg
   width="55.32552mm"
   height="39.746532mm"
   viewBox="0 0 55.32552 39.746532"
   version="1.1"
   id="svg1"
   xml:space="preserve"
   sodipodi:docname="rocket.svg"
   xmlns:inkscape="http://www.inkscape.org/namespaces/inkscape"
   xmlns:sodipodi="http://sodipodi.sourceforge.net/DTD/sodipodi-0.dtd"
   xmlns="http://www.w3.org/2000/svg"
   xmlns:svg="http://www.w3.org/2000/svg"><sodipodi:namedview
     id="namedview1"
     pagecolor="#505050"
     bordercolor="#eeeeee"
     borderopacity="1"
     inkscape:showpageshadow="0"
     inkscape:pageopacity="0"
     inkscape:pagecheckerboard="0"
     inkscape:deskcolor="#505050"
     inkscape:document-units="mm" /><defs
     id="defs1" /><g
     id="layer1"
     transform="translate(-89.867914,-104.71557)"><path
       style="display:none;fill:#c9c9c9;fill-opacity:1;stroke:#000000;stroke-width:1;stroke-linecap:round;stroke-linejoin:round;stroke-dasharray:none;stroke-opacity:1"
       d="m 124.58759,130.844 c 6.99358,6.30692 10.44288,13.30451 11.61155,17.656 2.1842,8.13274 -5.11738,13.88011 -3.11526,22.37993 2.00212,8.49982 5.65829,-19.16528 15.20937,3.67858 9.55108,22.84387 15.55964,-3.59218 5.19856,-21.85476 -2.76755,-4.87812 -10.24661,-18.4659 -15.04411,-21.07923 -4.29113,-2.33749 -10.78537,-4.8321 -10.78537,-4.8321"
       id="path14" /><path
       style="fill:#cc0000;fill-opacity:1;stroke:#000000;stroke-width:1;stroke-linecap:round;stroke-linejoin:round;stroke-dasharray:none;stroke-opacity:1"
       d="m 119.24389,118.42154 c 0,0 3.12618,-1.62533 6.04659,-0.91747 2.92042,0.70786 6.88193,1.96627 8.76955,4.08983 1.88762,2.12357 1.94438,3.87661 1.17976,4.48309 -1.227,0.97324 -3.93253,-0.74718 -5.78083,-1.49436 -1.13022,-0.4569 -3.6262,-0.18839 -3.6262,-0.18839"
       id="path9" /><path
       style="fill:#cc0000;fill-opacity:1;stroke:#000000;stroke-width:1;stroke-linecap:round;stroke-linejoin:round;stroke-dasharray:none;stroke-opacity:1"
       d="m 114.93261,127.28207 c 0,0 1.78495,7.36784 4.30177,10.98577 2.51682,3.61793 8.52598,5.66376 10.37446,5.6933 2.0743,0.0331 4.89549,-1.12458 1.1679,-3.89301 -1.49694,-1.11175 -5.17214,-3.893 -5.95074,-5.89512 -0.7786,-2.00212 -0.38931,-3.44809 -0.38931,-3.44809"
       id="path8" /><path
       style="display:inline;fill:#cc0000;fill-opacity:1;stroke:#000000;stroke-width:1;stroke-linecap:round;stroke-linejoin:round;stroke-dasharray:none;stroke-opacity:1"
       d="m 90.400679,105.47597 c 0.437867,-0.91687 11.011661,0.66737 16.239411,3.55932 5.22775,2.89195 20.68855,15.64379 21.02224,17.75713 0.33369,2.11335 -1.11229,4.26618 -3.22564,3.9325 -2.11334,-0.33369 -15.77196,-5.29275 -24.470331,-11.5678 -5.614541,-4.05036 -10.003546,-12.76427 -9.56568,-13.68115 z"
       id="path7" /><path
       style="fill:#cc0000;fill-opacity:1;stroke:#000000;stroke-width:1;stroke-linecap:round;stroke-linejoin:round;stroke-dasharray:none;stroke-opacity:1"
       d="m 121.20065,122.93096 c 0,0 5.40258,0.90917 8.25831,1.65167 3.62492,0.9425 7.38515,2.31416 8.45142,2.8992 1.98221,1.08762 5.1243,2.23237 6.43628,5.35643 0.54823,1.30545 0.47574,4.89021 -0.46795,5.11489 -2.19909,0.52357 -5.02279,-2.33104 -5.71793,-3.35353 -0.69581,-1.02348 -3.54837,-4.31962 -5.0769,-5.04261 -2.67019,-1.26298 -4.3294,-1.58501 -5.61237,-1.69624 -1.28296,-0.11122 -6.27086,-4.92981 -6.27086,-4.92981 z"
       id="path10" /></g></svg>
